<svg width="188" height="35" viewBox="0 0 188 35" fill="none" xmlns="http://www.w3.org/2000/svg">
<path d="M131.95 13.6493H130.255L129.893 14.6223H129.286L130.791 10.6946H131.454L132.946 14.6223H132.306L131.95 13.6493ZM130.435 13.1628H131.77L131.107 11.3508L130.435 13.1628Z" fill="#E88418"/>
<path d="M135.297 14.6778C134.35 14.6778 133.775 14.1586 133.726 13.3751H134.34C134.366 13.8713 134.686 14.1945 135.287 14.1945C135.783 14.1945 136.155 13.9595 136.155 13.5546C136.155 13.2249 135.943 13.0616 135.489 12.9637L134.921 12.8559C134.369 12.7482 133.866 12.4674 133.866 11.8014C133.866 11.1353 134.448 10.6423 135.261 10.6423C136.074 10.6423 136.694 11.1386 136.743 11.9222H136.129C136.096 11.452 135.757 11.1223 135.264 11.1223C134.771 11.1223 134.477 11.4227 134.477 11.7622C134.477 12.1344 134.8 12.265 135.166 12.3434L135.747 12.4576C136.42 12.5948 136.798 12.8886 136.798 13.4763C136.798 14.1586 136.253 14.681 135.3 14.681L135.297 14.6778Z" fill="#E88418"/>
<path d="M139.41 14.6778C138.463 14.6778 137.889 14.1586 137.84 13.3751H138.454C138.48 13.8713 138.8 14.1945 139.4 14.1945C139.897 14.1945 140.269 13.9595 140.269 13.5546C140.269 13.2249 140.057 13.0616 139.603 12.9637L139.035 12.8559C138.483 12.7482 137.98 12.4674 137.98 11.8014C137.98 11.1353 138.561 10.6423 139.374 10.6423C140.187 10.6423 140.808 11.1386 140.857 11.9222H140.243C140.21 11.452 139.871 11.1223 139.378 11.1223C138.885 11.1223 138.591 11.4227 138.591 11.7622C138.591 12.1344 138.914 12.265 139.28 12.3434L139.861 12.4576C140.533 12.5948 140.912 12.8886 140.912 13.4763C140.912 14.1586 140.367 14.681 139.414 14.681L139.41 14.6778Z" fill="#E88418"/>
<path d="M144.64 14.6254H142.152V10.6978H144.604V11.2234H142.756V12.34H144.441V12.8657H142.756V14.103H144.643V14.6287L144.64 14.6254Z" fill="#E88418"/>
<path d="M147.265 14.6778C146.318 14.6778 145.744 14.1586 145.695 13.3751H146.309C146.335 13.8713 146.655 14.1945 147.255 14.1945C147.752 14.1945 148.124 13.9595 148.124 13.5546C148.124 13.2249 147.912 13.0616 147.458 12.9637L146.89 12.8559C146.338 12.7482 145.835 12.4674 145.835 11.8014C145.835 11.1353 146.416 10.6423 147.229 10.6423C148.042 10.6423 148.663 11.1386 148.712 11.9222H148.098C148.065 11.452 147.726 11.1223 147.233 11.1223C146.74 11.1223 146.446 11.4227 146.446 11.7622C146.446 12.1344 146.769 12.265 147.135 12.3434L147.716 12.4576C148.388 12.5948 148.767 12.8886 148.767 13.4763C148.767 14.1586 148.222 14.681 147.268 14.681L147.265 14.6778Z" fill="#E88418"/>
<path d="M151.379 14.6778C150.432 14.6778 149.858 14.1586 149.809 13.3751H150.422C150.449 13.8713 150.768 14.1945 151.369 14.1945C151.865 14.1945 152.238 13.9595 152.238 13.5546C152.238 13.2249 152.025 13.0616 151.572 12.9637L151.004 12.8559C150.452 12.7482 149.949 12.4674 149.949 11.8014C149.949 11.1353 150.53 10.6423 151.343 10.6423C152.156 10.6423 152.776 11.1386 152.825 11.9222H152.212C152.179 11.452 151.839 11.1223 151.346 11.1223C150.853 11.1223 150.56 11.4227 150.56 11.7622C150.56 12.1344 150.883 12.265 151.248 12.3434L151.83 12.4576C152.502 12.5948 152.881 12.8886 152.881 13.4763C152.881 14.1586 152.336 14.681 151.382 14.681L151.379 14.6778Z" fill="#E88418"/>
<path d="M153.782 12.6568C153.782 11.4977 154.641 10.6162 155.78 10.6162C156.92 10.6162 157.778 11.4977 157.778 12.6568C157.778 13.8158 156.92 14.7071 155.78 14.7071C154.641 14.7071 153.782 13.8158 153.782 12.6568ZM157.152 12.6568C157.152 11.8144 156.61 11.1582 155.777 11.1582C154.945 11.1582 154.403 11.8144 154.403 12.6568C154.403 13.4991 154.945 14.1652 155.777 14.1652C156.61 14.1652 157.152 13.4991 157.152 12.6568Z" fill="#E88418"/>
<path d="M158.947 14.6254V10.6978H160.413C161.314 10.6978 161.856 11.1418 161.856 11.9221C161.856 12.4869 161.5 12.9179 160.903 13.0583L161.971 14.6222H161.249L160.27 13.1464H159.548V14.6222H158.947V14.6254ZM159.548 12.6436H160.374C160.932 12.6436 161.249 12.3988 161.249 11.9221C161.249 11.4454 160.932 11.2006 160.374 11.2006H159.548V12.6436Z" fill="#E88418"/>
<path d="M163.097 14.6254V10.6978H163.698V14.6254H163.097Z" fill="#E88418"/>
<path d="M167.446 13.6493H165.751L165.389 14.6223H164.782L166.287 10.6946H166.95L168.442 14.6223H167.802L167.446 13.6493ZM165.931 13.1628H167.266L166.604 11.3508L165.931 13.1628Z" fill="#E88418"/>
<path d="M129.602 21.8149V17.8872H130.843C132.096 17.8872 132.818 18.6871 132.818 19.8331C132.818 20.9791 132.07 21.8116 130.843 21.8116H129.602V21.8149ZM130.203 21.2958H130.817C131.718 21.2958 132.207 20.7375 132.207 19.8364C132.207 18.9352 131.727 18.4096 130.817 18.4096H130.203V21.299V21.2958Z" fill="#E88418"/>
<path d="M136.484 21.8149H133.997V17.8872H136.449V18.4129H134.601V19.5295H136.285V20.0551H134.601V21.2925H136.488V21.8182L136.484 21.8149Z" fill="#E88418"/>
<path d="M139.198 19.846C139.198 18.6902 140.047 17.8054 141.14 17.8054C142.126 17.8054 142.913 18.4617 143.06 19.4313H142.42C142.312 18.798 141.797 18.3474 141.147 18.3474C140.37 18.3474 139.825 18.9775 139.825 19.846C139.825 20.7144 140.373 21.3544 141.147 21.3544C141.797 21.3544 142.312 20.9005 142.42 20.2672H143.06C142.913 21.2401 142.123 21.8963 141.14 21.8963C140.047 21.8963 139.198 21.005 139.198 19.846Z" fill="#E88418"/>
<path d="M144 19.846C144 18.6869 144.859 17.8054 145.999 17.8054C147.138 17.8054 147.997 18.6869 147.997 19.846C147.997 21.005 147.138 21.8963 145.999 21.8963C144.859 21.8963 144 21.005 144 19.846ZM147.37 19.846C147.37 19.0036 146.828 18.3474 145.995 18.3474C145.163 18.3474 144.621 19.0036 144.621 19.846C144.621 20.6883 145.163 21.3544 145.995 21.3544C146.828 21.3544 147.37 20.6883 147.37 19.846Z" fill="#E88418"/>
<path d="M149.717 18.8112V21.8149H149.166V17.8872H149.903L151.222 21.077L152.535 17.8872H153.279V21.8149H152.721V18.8079L151.474 21.8149H150.958L149.717 18.8112Z" fill="#E88418"/>
<path d="M157.7 20.401C157.7 21.3021 157.119 21.8931 156.178 21.8931C155.238 21.8931 154.664 21.3021 154.664 20.401V17.8838H155.264V20.4173C155.264 20.9854 155.597 21.3544 156.178 21.3544C156.76 21.3544 157.096 20.9887 157.096 20.4173V17.8838H157.697V20.401H157.7Z" fill="#E88418"/>
<path d="M159.639 18.7459V21.8149H159.081V17.8872H159.737L161.755 20.8746V17.8872H162.313V21.8149H161.706L159.639 18.7459Z" fill="#E88418"/>
<path d="M163.71 21.8149V17.8872H164.311V21.8149H163.71Z" fill="#E88418"/>
<path d="M165.483 19.846C165.483 18.6902 166.332 17.8054 167.426 17.8054C168.412 17.8054 169.199 18.4617 169.346 19.4313H168.706C168.598 18.798 168.082 18.3474 167.433 18.3474C166.655 18.3474 166.11 18.9775 166.11 19.846C166.11 20.7144 166.659 21.3544 167.433 21.3544C168.082 21.3544 168.598 20.9005 168.706 20.2672H169.346C169.199 21.2401 168.409 21.8963 167.426 21.8963C166.332 21.8963 165.483 21.005 165.483 19.846Z" fill="#E88418"/>
<path d="M172.673 20.8385H170.978L170.616 21.8115H170.009L171.514 17.8838H172.177L173.669 21.8115H173.029L172.673 20.8385ZM171.155 20.3521H172.49L171.827 18.54L171.155 20.3521Z" fill="#E88418"/>
<path d="M176.205 22.8955C175.843 22.8955 175.591 22.7192 175.549 22.4025H175.911C175.938 22.5461 176.039 22.6212 176.186 22.6212C176.333 22.6212 176.414 22.5298 176.414 22.4188C176.414 22.2099 176.218 22.1413 175.96 22.1674L176.042 21.8899C175.036 21.7985 174.282 20.9366 174.282 19.8428C174.282 18.687 175.131 17.8022 176.225 17.8022C177.211 17.8022 177.998 18.4585 178.145 19.4282H177.505C177.397 18.7948 176.881 18.3442 176.231 18.3442C175.454 18.3442 174.909 18.9743 174.909 19.8428C174.909 20.7113 175.458 21.3512 176.231 21.3512C176.881 21.3512 177.397 20.8974 177.505 20.264H178.145C178.001 21.1977 177.27 21.8442 176.333 21.8899L176.3 22.0042C176.6 22.0303 176.816 22.2066 176.816 22.4482C176.816 22.7159 176.555 22.8955 176.209 22.8955H176.205Z" fill="#E88418"/>
<path d="M181.468 20.8386H179.774L179.412 21.8115H178.804L180.309 17.8838H180.972L182.464 21.8115H181.824L181.468 20.8386ZM179.689 17.6129C179.63 17.1362 179.849 16.8293 180.208 16.8293C180.567 16.8293 180.783 17.1688 180.995 17.1688C181.132 17.1688 181.214 17.0546 181.207 16.7966H181.57C181.625 17.2602 181.4 17.5802 181.041 17.5802C180.682 17.5802 180.473 17.2407 180.257 17.2407C180.12 17.2407 180.032 17.3484 180.038 17.6129H179.689ZM179.953 20.3521H181.289L180.626 18.5401L179.953 20.3521Z" fill="#E88418"/>
<path d="M183.075 19.846C183.075 18.6869 183.933 17.8054 185.073 17.8054C186.212 17.8054 187.071 18.6869 187.071 19.846C187.071 21.005 186.212 21.8963 185.073 21.8963C183.933 21.8963 183.075 21.005 183.075 19.846ZM186.444 19.846C186.444 19.0036 185.902 18.3474 185.07 18.3474C184.237 18.3474 183.695 19.0036 183.695 19.846C183.695 20.6883 184.237 21.3544 185.07 21.3544C185.902 21.3544 186.444 20.6883 186.444 19.846Z" fill="#E88418"/>
<path d="M130.203 27.6361V29.0041H129.602V25.0764H130.964C131.845 25.0764 132.413 25.5237 132.413 26.3465C132.413 27.1692 131.845 27.6361 130.964 27.6361H130.203ZM130.203 25.5857V27.1268H130.957C131.486 27.1268 131.809 26.8362 131.809 26.3497C131.809 25.8633 131.486 25.5825 130.957 25.5825H130.203V25.5857Z" fill="#E88418"/>
<path d="M135.636 28.0311H133.941L133.579 29.0041H132.972L134.477 25.0764H135.14L136.632 29.0041H135.992L135.636 28.0311ZM134.121 27.5414H135.456L134.793 25.7294L134.121 27.5414Z" fill="#E88418"/>
<path d="M137.722 29.0041V25.0764H139.188C140.089 25.0764 140.631 25.5204 140.631 26.3008C140.631 26.8656 140.275 27.2965 139.678 27.4369L140.745 29.0008H140.024L139.044 27.5251H138.323V29.0008H137.722V29.0041ZM138.323 27.0223H139.149C139.707 27.0223 140.024 26.7774 140.024 26.3008C140.024 25.8241 139.707 25.5792 139.149 25.5792H138.323V27.0223Z" fill="#E88418"/>
<path d="M144.164 28.0311H142.469L142.107 29.0041H141.5L143.005 25.0764H143.667L145.159 29.0041H144.52L144.164 28.0311ZM142.649 27.5414H143.984L143.321 25.7294L142.649 27.5414Z" fill="#E88418"/>
<path d="M147.709 27.0354C147.709 25.8797 148.558 24.9949 149.652 24.9949C150.638 24.9949 151.425 25.6511 151.572 26.6208H150.932C150.824 25.9874 150.308 25.5368 149.659 25.5368C148.882 25.5368 148.336 26.167 148.336 27.0354C148.336 27.9039 148.885 28.5438 149.659 28.5438C150.308 28.5438 150.824 28.09 150.932 27.4566H151.572C151.425 28.4295 150.635 29.0858 149.652 29.0858C148.558 29.0858 147.709 28.1945 147.709 27.0354Z" fill="#E88418"/>
<path d="M152.744 29.0041V25.0764H153.345V29.0041H152.744Z" fill="#E88418"/>
<path d="M155.303 25.9351V29.0041H154.745V25.0764H155.401L157.419 28.0638V25.0764H157.977V29.0041H157.37L155.303 25.9351Z" fill="#E88418"/>
<path d="M161.863 29.0041H159.375V25.0764H161.827V25.6021H159.979V26.7187H161.664V27.2443H159.979V28.4817H161.866V29.0073L161.863 29.0041Z" fill="#E88418"/>
<path d="M163.668 26.0004V29.0041H163.117V25.0764H163.855L165.174 28.2662L166.486 25.0764H167.23V29.0041H166.672V25.9971L165.425 29.0041H164.909L163.668 26.0004Z" fill="#E88418"/>
<path d="M170.968 28.0311H169.274L168.911 29.0041H168.304L169.809 25.0764H170.472L171.964 29.0041H171.324L170.968 28.0311ZM169.453 27.5414H170.789L170.126 25.7294L169.453 27.5414Z" fill="#E88418"/>
<path d="M63.7589 20.9363C63.7589 26.6564 59.7659 29.5491 56.4978 29.5491C53.4483 29.5491 52.7562 28.2301 51.6265 28.2595C50.5883 28.2922 49.71 29.3271 48.7665 29.3271C48.107 29.3271 47.885 28.9517 47.9796 28.3215C48.1364 27.44 48.231 26.405 48.231 25.1774L48.1984 12.1635C48.1984 9.99564 46.7227 10.2144 46.7227 9.27083C46.7227 8.86272 46.9414 8.6407 47.6989 8.29789C49.0179 7.66776 51.2805 6.91357 51.7865 6.91357C52.2926 6.91357 52.5081 7.19762 52.5081 7.85713L52.4754 12.1635V16.1239C53.481 14.8048 55.0514 13.8613 57.1899 13.8286C60.8042 13.796 63.7589 16.5646 63.7589 20.9331V20.9363ZM53.148 23.2936C54.1176 25.0991 55.5183 26.4181 56.7459 26.3528C57.9735 26.2875 59.0444 25.7325 60.1479 23.5123C61.973 19.8361 59.8606 17.2764 57.376 17.1752C55.4954 17.0968 53.7455 17.6584 53.0174 19.5422C52.5407 20.7731 52.4917 22.0692 53.148 23.2936Z" fill="#35451A"/>
<path d="M80.9978 19.1144V24.5831C80.9978 26.8783 82.8196 26.3755 82.8196 27.2865C82.8196 27.7272 82.5062 28.0733 81.8141 28.4488C80.8705 28.9516 79.1107 29.549 78.2292 29.549C77.3477 29.549 76.9722 29.0462 76.9102 27.7272L76.8775 26.8783C75.5879 28.6087 73.5767 29.549 71.8789 29.549C68.4834 29.549 66.567 27.2538 66.567 23.2315V19.1144C66.567 16.9465 65.0586 17.1653 65.0586 16.2217C65.0586 15.8136 65.2773 15.5916 66.0315 15.2455C67.3505 14.6154 69.6131 13.8612 70.1192 13.8612C70.6253 13.8612 70.8407 14.1452 70.8407 14.8047L70.8081 19.1111V23.0094C70.8081 25.3993 72.656 26.6171 73.6681 26.591C75.0557 26.5551 76.7502 25.0826 76.7502 22.412V19.1111C76.7502 16.9432 75.2418 17.162 75.2418 16.2184C75.2418 15.8103 75.4605 15.5883 76.2147 15.2422C77.5338 14.6121 79.7996 13.8579 80.3024 13.8579C80.8052 13.8579 81.0239 14.142 81.0239 14.8015L80.9913 19.1079L80.9978 19.1144Z" fill="#35451A"/>
<path d="M94.2824 26.268C93.7992 27.7176 92.1243 29.5525 89.4209 29.5525C86.5249 29.5525 84.8501 27.7503 84.8501 24.4658V22.7909C84.8501 19.9243 84.8827 17.4789 84.948 15.804H84.0795C83.2111 15.804 82.9531 15.5134 82.9531 14.9682C82.9531 14.5829 83.0804 14.1944 83.4363 13.8745C84.628 12.6501 86.1723 11.3964 87.4913 10.59C88.2325 10.1721 88.4904 10.1394 88.683 10.1394C89.1336 10.1394 89.4241 10.5573 89.3915 11.0405C89.2936 11.909 89.2642 12.7774 89.2315 13.7765H92.4181C93.0286 13.7765 93.5445 13.9365 93.3518 14.9029C93.1592 15.8693 92.6107 16.0293 91.9675 15.9966L89.1989 15.8987C89.1989 17.6683 89.1989 19.859 89.1662 22.7876C89.1336 25.6542 89.5841 26.5227 91.0338 26.5227C91.8696 26.5227 92.676 26.1048 93.3518 25.5889C93.9624 25.1384 94.5109 25.5889 94.2856 26.2647L94.2824 26.268Z" fill="#35451A"/>
<path d="M97.2308 19.4279C97.2308 17.2601 95.7224 17.4788 95.7224 16.5353C95.7224 16.0945 95.9412 15.8757 96.6954 15.5297C98.0144 14.9322 100.28 14.178 100.783 14.178C101.286 14.1453 101.505 14.462 101.505 15.1215L101.472 19.4279V25.1807C101.472 28.1028 103.013 27.3813 103.013 28.7656C103.013 29.3957 102.478 29.5524 101.629 29.5524H97.1329C96.222 29.5524 95.6865 29.363 95.6865 28.7362C95.6865 27.3845 97.2275 28.1061 97.2275 25.184V19.4312L97.2308 19.4279ZM96.2154 9.94668C96.1567 11.2331 96.4864 12.3954 97.1688 12.7578C97.8577 13.1202 98.6086 13.1626 99.9178 12.3235C102.089 10.9294 101.776 8.86926 100.466 8.01059C99.4771 7.36087 98.3507 7.09968 97.3516 7.88C96.6986 8.39258 96.2546 9.07495 96.2122 9.94668H96.2154Z" fill="#35451A"/>
<path d="M120.895 26.8196C120.213 26.849 119.778 26.418 119.436 25.1447L117.914 19.3104C117.232 16.7343 116.027 13.9853 112.899 13.7698C110.013 13.5707 108.485 14.2498 106.745 15.4153C106.644 15.4839 106.245 15.83 106.161 15.9214C105.021 17.1686 105.808 17.8477 106.265 17.8771C107.649 17.8771 109.187 16.1891 111.365 16.3458C113.65 16.5123 113.477 18.0991 114.035 20.0548C112.981 19.9013 112.361 19.8066 111.554 19.8066C107.147 19.8066 104.828 22.8789 104.835 24.988C104.842 27.0188 106.732 29.1149 110.121 29.5197C111.969 29.7384 114.192 28.7753 115.648 27.1592C116.115 28.71 116.945 29.5491 118.309 29.5491C119.798 29.5491 121.483 28.3998 121.483 27.3453C121.483 26.9731 121.235 26.8164 120.892 26.8164L120.895 26.8196ZM111.688 27.0906C109.732 27.0906 108.501 26.1601 108.413 24.8378C108.355 23.9824 109.621 21.8504 111.757 21.8504C112.72 21.8504 113.862 21.9876 114.368 22.7809C114.649 23.5253 114.675 24.0641 114.767 24.5538C114.79 25.7096 113.376 27.0939 111.688 27.0939V27.0906Z" fill="#35451A"/>
<path d="M110.604 11.1287C110.793 10.6259 111.799 9.58763 112.899 8.61469C113.938 7.73317 114.881 7.04427 115.759 7.3577C116.608 7.67113 117.078 8.52001 116.703 9.55825C116.138 11.194 112.553 12.3857 111.012 11.8208C110.604 11.6641 110.509 11.4127 110.604 11.1287Z" fill="#35451A"/>
<path d="M32.8043 29.9834C30.5287 30.0683 28.9713 28.9876 27.2083 26.7544C26.4475 25.788 25.948 24.4657 25.7227 23.1304C24.5506 23.6332 23.4732 24.358 22.7745 25.233C21.0572 27.3943 20.4271 29.1051 21.1486 31.2502C21.782 33.134 23.6136 35.0146 27.6098 34.8775C31.7236 34.7371 34.8383 32.3407 35.5436 29.2815C34.4564 29.781 33.6826 29.954 32.8076 29.9867L32.8043 29.9834Z" fill="#E88418"/>
<path d="M35.7659 14.5079C35.446 14.7397 35.0705 14.9389 34.6689 15.1086C34.8224 15.396 34.9465 15.7192 35.0118 16.0751C35.1489 16.8031 35.0934 17.9328 34.0486 19.1702C33.3826 19.957 32.6904 20.1235 32.2268 20.1235C30.9894 20.1235 30.1862 19.0429 29.6867 17.9458C29.1284 18.2103 28.4657 18.416 27.7539 18.4193C27.3556 18.4193 26.9703 18.354 26.6112 18.2266C26.5981 18.2789 26.5851 18.3311 26.572 18.3833C26.1116 20.4892 26.572 23.5484 27.9563 25.3474C29.6998 27.6197 31.2539 28.707 33.5524 28.5796C35.5733 28.4686 37.8685 27.1855 38.6684 23.2219C39.3933 19.6371 38.0579 16.0816 35.7659 14.5046V14.5079Z" fill="#E88418"/>
<path d="M30.3885 16.0293C30.3885 16.0293 31.4496 20.4304 33.082 18.4975C35.0932 16.1142 32.2364 14.5699 32.2364 14.5699C32.2364 14.5699 38.0512 13.3945 34.401 11.5694C32.2625 10.4985 31.0186 13.0092 31.0186 13.0092C31.0186 13.0092 29.3013 8.3339 28.0671 10.4561C26.7644 12.6958 28.805 14.1193 28.805 14.1193C28.805 14.1193 24.6814 14.7951 25.8568 16.2839C27.6819 18.5955 30.3917 16.0293 30.3917 16.0293H30.3885Z" fill="#35451A"/>
<path d="M18.0863 19.5522C17.3223 19.7154 16.3428 19.5489 15.8204 18.9057C15.3797 18.3638 15.0597 17.479 15.3797 16.7901C15.5788 16.3591 15.9478 16.013 16.3363 15.7682C17.048 15.3176 18.0732 15.2164 18.7817 15.6702C19.4934 16.124 19.8526 17.1035 19.7318 17.9328C19.6763 18.3083 19.5522 18.7229 19.2845 18.9972C18.9939 19.2943 18.625 19.4347 18.083 19.5522H18.0863Z" fill="#35451A"/>
<path d="M20.3682 21.3413C20.1038 21.3968 19.7642 21.3413 19.5847 21.1193C19.4312 20.9332 19.3202 20.6263 19.4312 20.388C19.4998 20.2378 19.6271 20.117 19.761 20.0321C20.0091 19.8754 20.3617 19.8427 20.6098 19.9995C20.8547 20.1562 20.982 20.4957 20.9396 20.783C20.92 20.9136 20.8776 21.0573 20.7861 21.152C20.6849 21.2532 20.5576 21.3054 20.3682 21.3446V21.3413Z" fill="#35451A"/>
<path d="M16.3233 22.0757C16.0589 22.1312 15.7193 22.0757 15.5397 21.8537C15.3863 21.6676 15.2753 21.3607 15.3863 21.1223C15.4548 20.9722 15.5822 20.8514 15.716 20.7665C15.9642 20.6098 16.3168 20.5771 16.5649 20.7338C16.8098 20.8905 16.9371 21.2301 16.8947 21.5174C16.8751 21.648 16.8326 21.7917 16.7412 21.8863C16.64 21.9875 16.5127 22.0398 16.3233 22.079V22.0757Z" fill="#35451A"/>
<path d="M13.7833 18.948C13.5188 19.0035 13.1793 18.948 12.9997 18.726C12.8462 18.5399 12.7352 18.233 12.8462 17.9947C12.9148 17.8445 13.0421 17.7237 13.176 17.6388C13.4241 17.4821 13.7767 17.4494 14.0249 17.6061C14.2697 17.7629 14.3971 18.1024 14.3546 18.3897C14.335 18.5203 14.2926 18.664 14.2012 18.7586C14.1 18.8599 13.9726 18.9121 13.7833 18.9513V18.948Z" fill="#35451A"/>
<path d="M21.7496 17.469C21.4851 17.5245 21.1456 17.469 20.966 17.247C20.8125 17.0609 20.7015 16.754 20.8126 16.5157C20.8811 16.3655 21.0084 16.2447 21.1423 16.1598C21.3904 16.0031 21.743 15.9704 21.9912 16.1271C22.236 16.2839 22.3634 16.6234 22.3209 16.9107C22.3013 17.0413 22.2589 17.185 22.1675 17.2796C22.0663 17.3809 21.9389 17.4331 21.7496 17.4723V17.469Z" fill="#35451A"/>
<path d="M19.0855 14.3347C18.8211 14.3902 18.4815 14.3347 18.3019 14.1127C18.1485 13.9266 18.0375 13.6197 18.1485 13.3814C18.217 13.2312 18.3444 13.1104 18.4782 13.0255C18.7264 12.8688 19.079 12.8361 19.3271 12.9929C19.572 13.1496 19.6993 13.4891 19.6569 13.7764C19.6373 13.907 19.5948 14.0507 19.5034 14.1454C19.4022 14.2466 19.2749 14.2988 19.0855 14.338V14.3347Z" fill="#35451A"/>
<path d="M15.0401 15.0759C14.7756 15.1315 14.4361 15.076 14.2565 14.8539C14.1031 14.6678 13.9921 14.3609 14.1031 14.1226C14.1716 13.9724 14.299 13.8516 14.4328 13.7667C14.681 13.61 15.0336 13.5774 15.2817 13.7341C15.5266 13.8908 15.6539 14.2303 15.6115 14.5177C15.5919 14.6482 15.5494 14.7919 15.458 14.8866C15.3568 14.9878 15.2295 15.04 15.0401 15.0792V15.0759Z" fill="#35451A"/>
<path d="M25.4813 17.5867C25.3344 17.4463 25.194 17.2928 25.0601 17.123C24.5606 16.4929 24.4267 15.7387 24.6912 15.0564C25.0144 14.2238 25.8829 13.6753 26.8166 13.3194C26.4314 12.3269 26.3987 11.0928 27.1627 9.78027C27.783 8.71265 28.6123 8.55593 29.0531 8.55593C30.137 8.55593 30.999 9.45704 31.6552 10.5834C32.1058 10.2765 32.651 10.0382 33.2942 9.9729C30.9467 5.05922 26.3498 1.30785 20.5807 0.276139C11.0667 -1.42487 1.97726 4.90904 0.276248 14.4197C-1.42477 23.9304 4.90588 33.0231 14.4165 34.7241C16.9305 35.1747 19.4184 35.0604 21.743 34.476C20.6133 33.49 20.0975 32.3179 19.8787 31.6159C18.8992 28.5077 20.2444 26.1929 21.8475 24.1524C22.8073 22.928 24.1329 22.1216 25.145 21.6417C24.9785 20.3651 25.0242 19.1146 25.2462 18.0992L25.478 17.5899L25.4813 17.5867ZM17.6357 4.16464C18.2561 3.43657 19.1768 2.95989 20.0811 2.68891C21.743 2.19264 23.8521 2.53872 25.0503 3.79244C26.2485 5.04617 26.4738 7.13897 25.8078 8.67673C25.5074 9.37542 25.0438 10.1166 24.3712 10.5018C23.6333 10.923 22.8236 11.0046 21.6711 10.9426C20.0517 10.8544 18.1679 10.0153 17.4464 8.49717C16.8358 7.21733 16.6432 5.33021 17.639 4.16791L17.6357 4.16464ZM21.8017 13.4794C23.1959 15.1053 23.3852 17.8903 22.5298 19.9668C22.1413 20.9071 21.5601 21.9159 20.7341 22.4546C19.833 23.0423 18.8535 23.1794 17.4725 23.1403C15.5331 23.0848 13.2999 22.0334 12.487 20.0353C11.8014 18.3506 11.6414 15.8432 12.8788 14.2532C13.6525 13.2607 14.7757 12.5881 15.8694 12.193C17.8839 11.4682 20.4044 11.8535 21.7985 13.4794H21.8017ZM5.31399 8.74204C5.4152 7.79195 5.90167 6.87777 6.49588 6.14317C7.58636 4.79476 9.51919 3.88713 11.2169 4.243C12.9147 4.59888 14.2827 6.19868 14.6059 7.84419C14.7528 8.58859 14.7887 9.46358 14.4524 10.1623C14.0835 10.9263 13.4599 11.4519 12.4739 12.0526C11.0896 12.895 9.0621 13.2672 7.60596 12.4248C6.37835 11.7131 5.15401 10.2667 5.31726 8.74529L5.31399 8.74204ZM6.62975 24.1328C5.78088 24.1197 5.04301 23.7769 4.07987 23.137C2.73146 22.2391 1.5365 20.5577 1.68669 18.8828C1.81402 17.4724 2.60413 15.7485 4.05374 15.2523C4.95812 14.9421 5.99309 14.9976 6.91053 15.2261C8.59195 15.644 10.2342 17.0153 10.6293 18.7032C11.0243 20.3912 10.1526 22.3077 8.79763 23.297C8.18383 23.7443 7.4068 24.1491 6.62975 24.136V24.1328ZM17.4398 30.9989C17.0317 31.6388 16.4571 32.2983 15.729 32.5726C14.9357 32.8697 14.1194 32.8207 12.993 32.5758C11.4096 32.233 9.68243 31.1033 9.21228 29.4872C8.81396 28.1257 8.92497 26.2354 10.0905 25.2428C10.8186 24.6225 11.8046 24.296 12.7384 24.1752C14.459 23.9499 16.4832 24.6258 17.4692 26.0558C18.4519 27.4826 18.341 29.5852 17.4398 30.9989Z" fill="#35451A"/>
</svg>
